<?xml version="1.0" encoding="utf-8"?>
<!-- Generator: Adobe Illustrator 16.0.0, SVG Export Plug-In . SVG Version: 6.00 Build 0)  -->
<!DOCTYPE svg PUBLIC "-//W3C//DTD SVG 1.1//EN" "http://www.w3.org/Graphics/SVG/1.1/DTD/svg11.dtd">
<svg version="1.1" xmlns="http://www.w3.org/2000/svg" xmlns:xlink="http://www.w3.org/1999/xlink" x="0px" y="0px" width="456px"
	 height="456px" viewBox="0 0 456 456" enable-background="new 0 0 456 456" xml:space="preserve">
<g id="Layer_1" xmlns:serif="http://www.serif.com/" display="none">
	<path display="inline" fill="#FFFFFF" d="M105.5,281.609c-2.703,0-5.001-0.9-6.893-2.702c-1.893-1.849-2.838-4.042-2.838-6.582
		c0-2.588,0.945-4.805,2.838-6.652c1.892-1.848,4.189-2.771,6.893-2.771c2.748,0,5.068,0.924,6.96,2.771
		c1.938,1.848,2.906,4.064,2.906,6.652c0,2.54-0.969,4.733-2.906,6.582C110.569,280.709,108.248,281.609,105.5,281.609z"/>
	<path display="inline" fill="#FFFFFF" d="M213.561,280.085h-17.57l-46.291-73.03c-1.171-1.848-2.141-3.766-2.905-5.751h-0.406
		c0.36,2.125,0.541,6.675,0.541,13.649v65.132h-15.544v-99.36h18.72l44.737,71.298c1.892,2.957,3.108,4.989,3.649,6.098h0.27
		c-0.45-2.633-0.676-7.09-0.676-13.373v-64.022h15.476V280.085z"/>
	<path display="inline" fill="#FFFFFF" d="M289.251,280.085h-54.4v-99.36h52.238v13.997h-36.154v28.131h33.316v13.927h-33.316
		v29.378h38.316V280.085z"/>
	<path display="inline" fill="#FFFFFF" d="M366.565,194.721h-27.843v85.363h-16.084v-85.363h-27.774v-13.997h71.701V194.721z"/>
</g>
<g id="Layer_2">
	
		<text transform="matrix(1 0 0 1 27.0002 235.4998)" fill="#EAEAEA" font-family="'CenturyGothic-Bold'" font-size="131" letter-spacing="-5">CHAIN</text>
	
		<text transform="matrix(1 0 0 1 215.0002 337.4998)" fill="#EAEAEA" font-family="'CenturyGothic'" font-size="120" letter-spacing="-4">SPY</text>
</g>
</svg>
